Coordinates
version=1
nRows=15
nColumns=34
inDegrees=yes

Units are S.I. units (second, meters, Newtons, ...)
If the header above contains a line with 'inDegrees', this indicates whether rotational values are in degrees (yes) or radians (no).

endheader
time	pelvis_tilt	pelvis_list	pelvis_rotation	pelvis_tx	pelvis_ty	pelvis_tz	hip_flexion_r	hip_adduction_r	hip_rotation_r	knee_angle_r	ankle_angle_r	subtalar_angle_r	mtp_angle_r	hip_flexion_l	hip_adduction_l	hip_rotation_l	knee_angle_l	ankle_angle_l	subtalar_angle_l	mtp_angle_l	lumbar_extension	lumbar_bending	lumbar_rotation	arm_flex_r	arm_add_r	arm_rot_r	elbow_flex_r	pro_sup_r	arm_flex_l	arm_add_l	arm_rot_l	elbow_flex_l	pro_sup_l
      1.46666670	     -2.20978073	      0.79023483	     -0.24189386	     -0.06969154	      1.26060952	     -0.04641663	     -0.74684583	      2.74204029	     -6.12295025	      0.00000000	      2.61403441	     -2.65398654	      0.00000000	      4.58391569	     -1.35302761	     -8.39305179	      4.32292259	     14.39703518	      6.62547979	      0.00000000	      0.87905261	     -0.10900445	      1.86160132	     -7.63133472	     -5.78534767	     -4.15781598	     28.36746079	     90.19578991	     -0.37881225	     -6.83726489	     12.40632914	     26.23560981	     92.78614085
      1.48333330	     -2.14699557	      0.76371043	      0.05325130	     -0.06856431	      1.26188926	     -0.04688378	     -0.91303556	      2.76955892	     -5.84312098	      0.00000000	      3.28710058	     -2.77357911	      0.00000000	      4.53026527	     -1.36701934	     -7.96761909	      4.28543707	     14.69119254	      7.03070738	      0.00000000	      0.66505638	     -0.03428464	      1.63718761	     -7.79053100	     -5.82489380	     -4.26232765	     28.39757419	     90.26989173	     -0.36910214	     -6.86592514	     12.40936328	     26.11401212	     92.88700551
      1.50000000	     -2.20544678	      0.76391710	      0.15513726	     -0.06909172	      1.26349358	     -0.04717203	     -0.95118109	      2.76202189	     -5.83829304	      0.00000000	      3.27549711	     -2.76200469	      0.00000000	      4.57817281	     -1.36232035	     -7.99177708	      4.23210823	     14.70478727	      7.03856355	      0.00000000	      0.53940793	     -0.01328465	      1.69629660	     -7.83219731	     -5.81647533	     -4.26816308	     28.38555569	     90.27696575	     -0.54876786	     -6.89712238	     12.41372635	     26.03777346	     92.89592781
      1.51666670	     -2.26547324	      0.77865687	      0.23245153	     -0.07127614	      1.26092510	     -0.04737713	     -0.91112206	      2.75627922	     -5.83607227	      0.00000000	      3.25785632	     -2.75151497	      0.00000000	      4.57970212	     -1.33162953	     -8.02369326	      4.18614188	     14.71889590	      7.04706327	      0.00000000	      0.36519299	      0.02568767	      1.70696543	     -7.96480447	     -5.81955312	     -4.27896819	     28.34322868	     90.28518803	     -0.72768264	     -6.95899854	     12.41296669	     25.94632782	     92.90591889
      1.53333330	     -2.34703143	      0.78909849	      0.28086945	     -0.07247097	      1.26126114	     -0.04732102	     -0.92695449	      2.72825332	     -5.89481934	      0.00000000	      3.19341123	     -2.75838750	      0.00000000	      4.62116203	     -1.31571213	     -8.07387072	      4.07775960	     14.71461645	      7.05843397	      0.00000000	      0.21635161	      0.06815475	      1.71986785	     -8.05251156	     -5.83438135	     -4.29400483	     28.31509522	     90.29407577	     -0.87594094	     -7.02518397	     12.40869761	     25.85424868	     92.91630914
      1.55000000	     -2.45715473	      0.79627465	      0.19593353	     -0.07428752	      1.26087269	     -0.04737875	     -0.85510515	      2.70806129	     -6.57408579	      0.00000000	      1.96803642	     -3.05571610	      0.00000000	      4.59080405	     -1.30009197	     -8.67833685	      3.65021327	     14.39618498	      7.41460886	      0.00000000	      0.01905634	      0.15303275	      1.54141762	     -7.99763010	     -5.89184854	     -4.55386338	     28.47081799	     90.49394736	     -0.98957357	     -7.03928465	     12.31281519	     25.27399953	     93.11541909
      1.56666670	     -2.58111569	      0.81089967	      0.30690857	     -0.07251141	      1.26090363	     -0.04783990	     -0.75785338	      2.69664207	     -6.63039362	      0.00000000	      1.93757166	     -3.09767169	      0.00000000	      4.61085893	     -1.28042262	     -8.77985479	      3.50023970	     14.40827480	      7.37222582	      0.00000000	     -0.18094794	      0.20562427	      1.58165581	     -8.08832260	     -5.89869617	     -4.56412464	     28.42931474	     90.50343202	     -1.13703930	     -7.09868398	     12.30587658	     25.19477051	     93.12402706
      1.58333330	     -2.81655311	      0.80452280	      0.20250653	     -0.07352805	      1.26251087	     -0.04775122	     -0.49794011	      2.68960473	     -7.11508376	      0.00000000	      1.49209064	     -3.27829382	      0.00000000	      4.60732195	     -1.24539086	     -9.31318585	      2.88783512	     14.19445775	      7.21982651	      0.00000000	     -0.27209315	      0.30991302	      1.57544686	     -8.19137575	     -5.99528222	     -4.64807005	     28.39447074	     90.54703936	     -1.25171352	     -7.16884106	     12.26720731	     25.05830531	     93.16651870
      1.60000000	     -3.08052214	      0.81844779	      0.30713527	     -0.07216005	      1.26069043	     -0.04832821	     -0.27739815	      2.64306008	     -8.02308064	      0.00000000	     -0.97430232	     -3.91629033	      0.00000000	      4.70122452	     -1.23728029	    -10.00303576	      2.69837527	     13.26883289	      7.22482565	      0.00000000	     -0.21159700	      0.35260635	      1.57907476	     -8.55500805	     -5.97011540	     -4.92533618	     28.20185536	     90.73369103	     -1.44853432	     -7.15247269	     12.11982816	     24.69830090	     93.33869316
      1.61666670	     -3.66542067	      0.87408509	      0.13715887	     -0.07558834	      1.26199115	     -0.04856390	      0.49789373	      2.56632517	     -8.33183361	      0.00000000	     -1.89019256	     -5.00072206	      0.00000000	      5.17438251	     -1.14054304	    -10.44553808	      2.40123345	     13.01402433	      7.33969086	      0.00000000	      0.10210854	      0.44163401	      1.79166243	     -8.86866231	     -5.97275869	     -5.33283197	     28.05892088	     91.05540974	     -1.63110651	     -7.12517134	     11.87143215	     24.40659812	     93.62252591
      1.63333330	     -3.79343986	      0.93277192	      0.14830818	     -0.07083619	      1.26220628	     -0.04900372	      0.59744038	      2.46472108	     -9.44471012	      0.00000000	     -3.39088050	     -5.41925149	      0.00000000	      4.93077058	     -1.01277008	    -11.20561461	      2.29928158	     12.60212372	      7.05792244	      0.00000000	      0.04616787	      0.48089943	      1.74512056	     -9.11989945	     -5.94785080	     -5.45642121	     27.91513105	     91.15125641	     -2.00994459	     -7.13260114	     11.81068204	     24.20730845	     93.71066959
      1.65000000	     -4.09995738	      0.92090941	     -0.16286120	     -0.07003291	      1.26324277	     -0.04891383	      0.99074605	      2.44109464	     -9.99615593	      0.00000000	     -4.65855665	     -5.61445862	      0.00000000	      5.04793504	     -0.98257929	    -11.59310032	      2.39836210	     12.27025972	      6.99355572	      0.00000000	      0.01020221	      0.64668969	      1.87100794	     -9.47008017	     -6.11832703	     -5.66106254	     27.79353162	     91.27625681	     -2.57988587	     -7.05609427	     11.67808995	     24.03861069	     93.81126642
      1.66666670	     -4.20424697	      0.95055149	     -0.24261657	     -0.07170869	      1.26430195	     -0.04845166	      1.33430816	      2.39889298	    -10.06045018	      0.00000000	     -4.68881012	     -5.65124953	      0.00000000	      5.00601679	     -0.90453916	    -11.59740042	      2.48553135	     12.21396934	      7.00266277	      0.00000000	     -0.33909356	      0.69163184	      1.94025958	     -9.70278089	     -6.13582623	     -5.67781111	     27.70202946	     91.28625655	     -2.95993972	     -7.14807640	     11.66774090	     23.88738609	     93.81971664
      1.68333330	     -4.36341552	      1.00943483	     -0.41990197	     -0.06946210	      1.26983990	     -0.04758350	      1.69269264	      2.30458709	    -10.14281050	      0.00000000	     -4.71268725	     -5.65058787	      0.00000000	      4.98775091	     -0.80279869	    -11.60119164	      2.56103752	     12.09707378	      7.03983422	      0.00000000	     -0.66754026	      0.73735964	      2.03942457	     -9.93439939	     -6.16909371	     -5.70362566	     27.61903239	     91.29692099	     -3.40730073	     -7.22112557	     11.65697343	     23.71846514	     93.82913564
      1.70000000	     -5.38402954	      1.15994883	     -0.61029636	     -0.07345718	      1.26595285	     -0.04669506	      3.08259384	      2.13656654	     -9.98597715	      0.00000000	     -4.29331881	     -4.80293051	      0.00000000	      5.83719264	     -0.65487004	    -12.60888134	      2.48436412	     10.73922648	      6.65190918	      0.00000000	      0.42715247	      0.56396950	      2.51236449	    -10.53951247	     -6.12649140	     -6.17284639	     27.67022704	     91.52645988	     -4.08043054	     -7.27603211	     11.19919992	     23.36776539	     93.97270466
